<svg width="61" height="61" viewBox="0 0 61 61" fill="none" xmlns="http://www.w3.org/2000/svg">
<g id="Meat 1">
<g id="pRoY3yKmb">
<path id="Vector" fill-rule="evenodd" clip-rule="evenodd" d="M34.2519 54.9175C32.4013 54.2058 28.6289 52.284 25.9241 50.6469C20.4435 47.3016 19.8741 47.1592 15.5322 48.7251C11.5463 50.0775 8.62803 50.0063 5.5674 48.4404C1.72382 46.3763 0.656158 43.458 0.656158 35.2014C0.656158 26.3042 2.22206 22.3183 8.27214 16.4106C22.0094 2.95805 44.3591 1.24979 54.3239 12.8517C58.9505 18.2612 59.9469 21.393 60.2316 30.9308C60.5163 38.262 60.3028 39.9703 59.0928 43.3868C57.3845 47.7998 53.6121 52.0705 49.6262 54.0634C45.6403 56.0564 38.4514 56.4835 34.2519 54.9175ZM35.1772 42.3903C33.896 41.8921 30.266 39.9703 27.2053 38.1197C21.0841 34.4896 20.2299 34.3473 15.1763 35.842C10.2651 37.3367 8.62803 37.1944 6.63506 35.2014C4.28621 32.8526 4.35738 29.6496 6.99095 25.2366C13.824 13.4211 30.1236 6.58809 42.5796 10.2893C49.9109 12.4958 56.1034 20.5389 56.1034 28.0837C56.1034 38.1197 51.0498 43.3868 41.2273 43.3868C39.2343 43.3868 36.5296 42.8886 35.1772 42.3903ZM36.6007 38.3332C34.679 37.4791 32.4013 31.5002 33.4689 30.219C34.1095 29.5072 45.0709 33.6355 46.7791 35.2014C48.9856 37.2656 40.2308 39.8991 36.6007 38.3332ZM25.7106 32.1408C23.2906 30.7172 19.1623 30.6461 14.6781 31.9272C11.6175 32.8526 11.1904 32.8526 10.1228 31.7849C8.34332 30.0055 9.48216 27.2295 13.9663 22.9589C18.7352 18.3324 20.657 17.6918 24.0735 19.6847C26.7071 21.1795 28.4865 24.8095 29.4118 30.7172C29.8389 33.7779 28.9136 34.2049 25.7106 32.1408ZM43.8608 30.2902C41.7967 29.436 40.0173 28.226 39.9461 27.5854C39.6614 26.3754 43.6473 17.3359 44.7861 16.6241C45.925 15.9123 50.1956 20.7524 51.1921 23.9554C51.6904 25.5213 51.8327 28.0125 51.6192 29.436C51.2633 31.5714 50.8362 31.9984 49.4127 31.9984C48.4162 31.9984 45.925 31.2155 43.8608 30.2902ZM32.686 25.5925C31.903 25.2366 30.9066 23.5995 30.4083 21.9624C29.8389 19.9694 28.9136 18.7594 27.49 17.9765C26.3512 17.4071 25.5682 16.5529 25.7106 16.1259C26.4936 13.8482 38.5937 12.7094 40.5867 14.7023C41.5832 15.6988 36.6007 26.3042 35.1772 26.3042C34.5366 26.3042 33.4689 25.9483 32.686 25.5925Z" fill="white"/>
</g>
</g>
</svg>
