<svg width="60" height="60" viewBox="0 0 60 60" fill="none" xmlns="http://www.w3.org/2000/svg">
<g id="Olla 1">
<g id="l2Qu3lRr1nz7DAvU6I0QNTgj">
<g id="Group">
<path id="p18DyAYadm" fill-rule="evenodd" clip-rule="evenodd" d="M14.1539 51.9077C12.0824 50.8405 10.1364 49.1457 9.00652 47.4508C7.24888 45.0027 7.06056 44.1866 6.87224 38.7882L6.68392 32.8875L4.48688 31.9459C3.23142 31.4438 2.41538 30.6905 2.54092 30.2511C2.85478 29.435 3.92192 29.3723 5.67956 30.0628C7.56274 30.8788 7.18611 26.2964 5.17738 24.476C3.29419 22.7183 3.23142 21.4001 4.98906 19.768C6.37006 18.5126 7.12333 18.5126 29.9726 18.5126C52.8847 18.5126 53.638 18.5126 55.019 19.768C56.7766 21.4001 56.7138 22.7183 54.8306 24.476C52.8219 26.2964 52.4453 30.8788 54.3285 30.0628C57.6554 28.7445 58.7853 30.5022 55.5211 32.0715L53.3241 33.0759L53.1358 38.9137C52.9475 44.1866 52.7591 45.0027 51.0015 47.4508C49.8716 49.1457 47.9256 50.8405 45.8541 51.9077C42.59 53.6026 42.4644 53.6653 30.0354 53.6653C17.5436 53.6653 17.4181 53.6026 14.1539 51.9077Z" fill="white"/>
<path id="pOuoeXATy" fill-rule="evenodd" clip-rule="evenodd" d="M14.7816 14.7462C16.0998 14.0557 18.0458 13.3024 19.1757 13.1141C20.6195 12.8003 21.5611 12.1098 22.1888 10.9171C23.6326 8.09229 26.6457 6.33466 30.0354 6.33466C33.4879 6.33466 35.8733 7.65288 37.6309 10.6032C38.4469 12.047 39.4513 12.8003 40.8323 13.1141C41.9622 13.3024 43.9082 14.0557 45.2264 14.7462L47.6118 16.0017H12.459L14.7816 14.7462ZM24.3858 11.6076C24.3858 10.3521 27.7128 8.46893 30.0354 8.46893C32.2952 8.46893 35.6849 10.3521 35.6849 11.6076C35.6849 11.9214 33.1113 12.2353 30.0354 12.2353C26.8968 12.2353 24.3858 11.9214 24.3858 11.6076Z" fill="white"/>
</g>
</g>
</g>
</svg>
