<svg width="60" height="60" viewBox="0 0 60 60" fill="none" xmlns="http://www.w3.org/2000/svg">
<g id="Salami 1">
<g id="l74cEgnF6Pl8GZPLRFYa1cs">
<g id="Group">
<path id="p5DE6y7Kd" d="M6.9768 55.0777C6.13983 53.4336 4.07728 51.3411 3.2403 51.3411C2.43321 51.3113 1.7158 50.564 1.7158 49.7868C1.7158 49.2188 1.98483 48.9199 2.97127 48.4117C4.61533 47.6345 6.10993 47.1563 6.9768 47.1563C7.84367 47.1563 7.87357 46.7677 7.15616 45.7214C2.91149 39.4441 3.2403 30.1477 7.90346 23.9301C8.53119 23.0932 13.0449 18.3104 17.9472 13.2886C27.2735 3.72311 27.8713 3.24483 31.6377 2.04915C33.9394 1.33174 38.9015 1.72034 41.9206 2.91602C48.0784 5.30739 53.1301 10.3591 55.5215 16.5169C56.7172 19.536 57.1058 24.4981 56.3585 26.7998C55.1927 30.4167 54.8639 30.8352 45.0892 40.6697C36.0917 49.727 33.8199 51.7297 31.1894 52.9553C25.5099 55.5858 18.8738 55.1972 13.4036 51.9091C12.3873 51.2515 11.4606 50.7433 11.4008 50.7433C11.341 50.7433 11.2813 51.0422 11.2813 51.4009C11.2813 52.5368 10.2948 55.2869 9.51763 56.2136C8.68065 57.2299 7.84367 56.8413 6.9768 55.0777ZM45.9859 33.5853C48.3474 33.0173 49.6925 32.2999 51.1573 30.8352C53.5785 28.4438 54.6845 24.6774 54.0568 21.1203C53.2497 16.6664 51.6654 13.7369 48.1979 10.2097C44.85 6.80199 41.8309 5.21771 37.1977 4.38073C33.7003 3.72311 30.0236 4.82911 27.6023 7.28026C24.912 9.94065 23.8957 13.9163 24.8523 17.862C25.9284 22.1964 27.3034 24.6177 30.5616 27.8759C33.8498 31.164 36.4205 32.5988 40.5755 33.5554C42.7277 34.0635 43.9533 34.0635 45.9859 33.5853Z" fill="white"/>
<path id="p7gc9gx72" d="M40.2766 28.7727C39.4994 27.8161 40.6652 26.3514 41.7114 27.009C42.7277 27.6667 42.369 29.221 41.1733 29.221C40.8744 29.221 40.4858 29.0118 40.2766 28.7727Z" fill="white"/>
<path id="pxn8TFDLd" d="M46.4642 23.9003C45.8066 23.1828 45.8365 21.9573 46.4941 21.3594C47.6898 20.2833 49.5431 21.0904 49.5431 22.7046C49.5431 24.2291 47.4805 25.0362 46.4642 23.9003Z" fill="white"/>
<path id="paFeN7PrU" d="M37.8852 20.4029C37.108 19.4463 38.2738 17.9816 39.32 18.6392C40.3363 19.2968 39.9776 20.8512 38.782 20.8512C38.483 20.8512 38.0944 20.642 37.8852 20.4029Z" fill="white"/>
<path id="pXkqJWlTV" d="M29.7247 17.9219C28.6485 16.7262 29.4556 14.8729 31.0698 14.8729C32.5943 14.8729 33.4014 16.9354 32.2655 17.9517C31.5481 18.6094 30.3225 18.5795 29.7247 17.9219Z" fill="white"/>
<path id="p1GN6ROx1S" d="M41.4722 13.2288C40.695 12.2722 41.8608 10.8075 42.9071 11.4652C43.5647 11.8836 43.7141 12.6907 43.2658 13.2288C42.7875 13.7967 41.9505 13.7967 41.4722 13.2288Z" fill="white"/>
<path id="pu7fwKtfq" d="M33.1025 10.8374C32.3253 9.88088 33.4911 8.41617 34.5373 9.07379C35.1949 9.49228 35.3444 10.2994 34.896 10.8374C34.4177 11.4054 33.5807 11.4054 33.1025 10.8374Z" fill="white"/>
</g>
</g>
</g>
</svg>
